{
    "asset" : {
        "generator" : "Khronos glTF Blender I/O v1.2.75",
        "version" : "2.0"
    },
    "scene" : 0,
    "scenes" : [
        {
            "name" : "Scene",
            "nodes" : [
                0,
                1,
                2,
                3,
                4,
                5,
                6,
                7,
                8,
                9,
                10,
                11,
                12
            ]
        }
    ],
    "nodes" : [
        {
            "name" : "Light.001",
            "rotation" : [
                0.16907575726509094,
                0.7558803558349609,
                -0.27217137813568115,
                0.570947527885437
            ],
            "translation" : [
                4.076245307922363,
                5.903861999511719,
                -1.0054539442062378
            ]
        },
        {
            "name" : "Camera.001",
            "rotation" : [
                0.483536034822464,
                0.33687159419059753,
                -0.20870360732078552,
                0.7804827094078064
            ],
            "translation" : [
                7.358891487121582,
                4.958309173583984,
                6.925790786743164
            ]
        },
        {
            "mesh" : 0,
            "name" : "Plane"
        },
        {
            "mesh" : 1,
            "name" : "Plane.001"
        },
        {
            "mesh" : 2,
            "name" : "Sphere"
        },
        {
            "mesh" : 3,
            "name" : "Cube.001"
        },
        {
            "mesh" : 4,
            "name" : "Cube.002"
        },
        {
            "mesh" : 5,
            "name" : "Cube.004",
            "rotation" : [
                0,
                0.999992847442627,
                0,
                -0.0037820686120539904
            ]
        },
        {
            "mesh" : 6,
            "name" : "Cube.005",
            "rotation" : [
                0,
                0.9999966025352478,
                0,
                0.0026096832007169724
            ]
        },
        {
            "mesh" : 7,
            "name" : "Cube.003",
            "scale" : [
                0.19508695602416992,
                -0.007522920146584511,
                0.0301141869276762
            ],
            "translation" : [
                0,
                0.8175812363624573,
                0.5616946816444397
            ]
        },
        {
            "name" : "Light",
            "rotation" : [
                0.16907575726509094,
                0.7558803558349609,
                -0.27217137813568115,
                0.570947527885437
            ],
            "translation" : [
                4.076245307922363,
                5.903861999511719,
                -1.0054539442062378
            ]
        },
        {
            "name" : "Camera",
            "rotation" : [
                0.483536034822464,
                0.33687159419059753,
                -0.20870360732078552,
                0.7804827094078064
            ],
            "translation" : [
                7.358891487121582,
                4.958309173583984,
                6.925790786743164
            ]
        },
        {
            "mesh" : 8,
            "name" : "Cube.006",
            "rotation" : [
                0,
                0.7071067690849304,
                0,
                0.7071067690849304
            ],
            "scale" : [
                0.19508695602416992,
                -0.007522920146584511,
                0.0301141869276762
            ],
            "translation" : [
                0.032268572598695755,
                0.8175812363624573,
                -0.5607671141624451
            ]
        }
    ],
    "meshes" : [
        {
            "name" : "Plane",
            "primitives" : [
                {
                    "attributes" : {
                        "POSITION" : 0,
                        "NORMAL" : 1,
                        "TEXCOORD_0" : 2
                    },
                    "indices" : 3
                }
            ]
        },
        {
            "name" : "Plane.001",
            "primitives" : [
                {
                    "attributes" : {
                        "POSITION" : 4,
                        "NORMAL" : 5,
                        "TEXCOORD_0" : 6
                    },
                    "indices" : 7
                }
            ]
        },
        {
            "name" : "Sphere",
            "primitives" : [
                {
                    "attributes" : {
                        "POSITION" : 8,
                        "NORMAL" : 9,
                        "TEXCOORD_0" : 10
                    },
                    "indices" : 11
                }
            ]
        },
        {
            "name" : "Cube.002",
            "primitives" : [
                {
                    "attributes" : {
                        "POSITION" : 12,
                        "NORMAL" : 13,
                        "TEXCOORD_0" : 14
                    },
                    "indices" : 15
                }
            ]
        },
        {
            "name" : "Cube.001",
            "primitives" : [
                {
                    "attributes" : {
                        "POSITION" : 16,
                        "NORMAL" : 17,
                        "TEXCOORD_0" : 18
                    },
                    "indices" : 19
                }
            ]
        },
        {
            "name" : "Cube.004",
            "primitives" : [
                {
                    "attributes" : {
                        "POSITION" : 20,
                        "NORMAL" : 21,
                        "TEXCOORD_0" : 22
                    },
                    "indices" : 19
                }
            ]
        },
        {
            "name" : "Cube.005",
            "primitives" : [
                {
                    "attributes" : {
                        "POSITION" : 23,
                        "NORMAL" : 24,
                        "TEXCOORD_0" : 25
                    },
                    "indices" : 15
                }
            ]
        },
        {
            "name" : "Cube.007",
            "primitives" : [
                {
                    "attributes" : {
                        "POSITION" : 26,
                        "NORMAL" : 27,
                        "TEXCOORD_0" : 28
                    },
                    "indices" : 7
                }
            ]
        },
        {
            "name" : "Cube.003",
            "primitives" : [
                {
                    "attributes" : {
                        "POSITION" : 29,
                        "NORMAL" : 30,
                        "TEXCOORD_0" : 31
                    },
                    "indices" : 7
                }
            ]
        }
    ],
    "accessors" : [
        {
            "bufferView" : 0,
            "componentType" : 5126,
            "count" : 285,
            "max" : [
                0.4690025746822357,
                0.4000000059604645,
                1.9922866821289062
            ],
            "min" : [
                -0.46893319487571716,
                0,
                -1.9922866821289062
            ],
            "type" : "VEC3"
        },
        {
            "bufferView" : 1,
            "componentType" : 5126,
            "count" : 285,
            "type" : "VEC3"
        },
        {
            "bufferView" : 2,
            "componentType" : 5126,
            "count" : 285,
            "type" : "VEC2"
        },
        {
            "bufferView" : 3,
            "componentType" : 5123,
            "count" : 408,
            "type" : "SCALAR"
        },
        {
            "bufferView" : 4,
            "componentType" : 5126,
            "count" : 24,
            "max" : [
                0.1004437506198883,
                0.4751121401786804,
                0.1004437506198883
            ],
            "min" : [
                -0.1004437506198883,
                0.3499999940395355,
                -0.1004437506198883
            ],
            "type" : "VEC3"
        },
        {
            "bufferView" : 5,
            "componentType" : 5126,
            "count" : 24,
            "type" : "VEC3"
        },
        {
            "bufferView" : 6,
            "componentType" : 5126,
            "count" : 24,
            "type" : "VEC2"
        },
        {
            "bufferView" : 7,
            "componentType" : 5123,
            "count" : 36,
            "type" : "SCALAR"
        },
        {
            "bufferView" : 8,
            "componentType" : 5126,
            "count" : 287,
            "max" : [
                0.22000008821487427,
                0.8480164408683777,
                0.22000011801719666
            ],
            "min" : [
                -0.2199999988079071,
                0.4080163836479187,
                -0.2200000286102295
            ],
            "type" : "VEC3"
        },
        {
            "bufferView" : 9,
            "componentType" : 5126,
            "count" : 287,
            "type" : "VEC3"
        },
        {
            "bufferView" : 10,
            "componentType" : 5126,
            "count" : 287,
            "type" : "VEC2"
        },
        {
            "bufferView" : 11,
            "componentType" : 5123,
            "count" : 1440,
            "type" : "SCALAR"
        },
        {
            "bufferView" : 12,
            "componentType" : 5126,
            "count" : 66,
            "max" : [
                0.22969241440296173,
                0.8124273419380188,
                0.8392646312713623
            ],
            "min" : [
                -0.22969241440296173,
                0.3499999940395355,
                0.28433918952941895
            ],
            "type" : "VEC3"
        },
        {
            "bufferView" : 13,
            "componentType" : 5126,
            "count" : 66,
            "type" : "VEC3"
        },
        {
            "bufferView" : 14,
            "componentType" : 5126,
            "count" : 66,
            "type" : "VEC2"
        },
        {
            "bufferView" : 15,
            "componentType" : 5123,
            "count" : 84,
            "type" : "SCALAR"
        },
        {
            "bufferView" : 16,
            "componentType" : 5126,
            "count" : 80,
            "max" : [
                0.08734646439552307,
                0.5808968544006348,
                1.6157341003417969
            ],
            "min" : [
                -0.08734646439552307,
                0.4000000059604645,
                1.2572380304336548
            ],
            "type" : "VEC3"
        },
        {
            "bufferView" : 17,
            "componentType" : 5126,
            "count" : 80,
            "type" : "VEC3"
        },
        {
            "bufferView" : 18,
            "componentType" : 5126,
            "count" : 80,
            "type" : "VEC2"
        },
        {
            "bufferView" : 19,
            "componentType" : 5123,
            "count" : 84,
            "type" : "SCALAR"
        },
        {
            "bufferView" : 20,
            "componentType" : 5126,
            "count" : 80,
            "max" : [
                0.08734646439552307,
                0.5808968544006348,
                1.6157341003417969
            ],
            "min" : [
                -0.08734646439552307,
                0.4000000059604645,
                1.2572380304336548
            ],
            "type" : "VEC3"
        },
        {
            "bufferView" : 21,
            "componentType" : 5126,
            "count" : 80,
            "type" : "VEC3"
        },
        {
            "bufferView" : 22,
            "componentType" : 5126,
            "count" : 80,
            "type" : "VEC2"
        },
        {
            "bufferView" : 23,
            "componentType" : 5126,
            "count" : 66,
            "max" : [
                0.22969241440296173,
                0.8124273419380188,
                0.8392646312713623
            ],
            "min" : [
                -0.22969241440296173,
                0.3499999940395355,
                0.28433918952941895
            ],
            "type" : "VEC3"
        },
        {
            "bufferView" : 24,
            "componentType" : 5126,
            "count" : 66,
            "type" : "VEC3"
        },
        {
            "bufferView" : 25,
            "componentType" : 5126,
            "count" : 66,
            "type" : "VEC2"
        },
        {
            "bufferView" : 26,
            "componentType" : 5126,
            "count" : 24,
            "max" : [
                1,
                1,
                1
            ],
            "min" : [
                -1,
                -1,
                -1
            ],
            "type" : "VEC3"
        },
        {
            "bufferView" : 27,
            "componentType" : 5126,
            "count" : 24,
            "type" : "VEC3"
        },
        {
            "bufferView" : 28,
            "componentType" : 5126,
            "count" : 24,
            "type" : "VEC2"
        },
        {
            "bufferView" : 29,
            "componentType" : 5126,
            "count" : 24,
            "max" : [
                1,
                1,
                1
            ],
            "min" : [
                -1,
                -1,
                -1
            ],
            "type" : "VEC3"
        },
        {
            "bufferView" : 30,
            "componentType" : 5126,
            "count" : 24,
            "type" : "VEC3"
        },
        {
            "bufferView" : 31,
            "componentType" : 5126,
            "count" : 24,
            "type" : "VEC2"
        }
    ],
    "bufferViews" : [
        {
            "buffer" : 0,
            "byteLength" : 3420,
            "byteOffset" : 0
        },
        {
            "buffer" : 0,
            "byteLength" : 3420,
            "byteOffset" : 3420
        },
        {
            "buffer" : 0,
            "byteLength" : 2280,
            "byteOffset" : 6840
        },
        {
            "buffer" : 0,
            "byteLength" : 816,
            "byteOffset" : 9120
        },
        {
            "buffer" : 0,
            "byteLength" : 288,
            "byteOffset" : 9936
        },
        {
            "buffer" : 0,
            "byteLength" : 288,
            "byteOffset" : 10224
        },
        {
            "buffer" : 0,
            "byteLength" : 192,
            "byteOffset" : 10512
        },
        {
            "buffer" : 0,
            "byteLength" : 72,
            "byteOffset" : 10704
        },
        {
            "buffer" : 0,
            "byteLength" : 3444,
            "byteOffset" : 10776
        },
        {
            "buffer" : 0,
            "byteLength" : 3444,
            "byteOffset" : 14220
        },
        {
            "buffer" : 0,
            "byteLength" : 2296,
            "byteOffset" : 17664
        },
        {
            "buffer" : 0,
            "byteLength" : 2880,
            "byteOffset" : 19960
        },
        {
            "buffer" : 0,
            "byteLength" : 792,
            "byteOffset" : 22840
        },
        {
            "buffer" : 0,
            "byteLength" : 792,
            "byteOffset" : 23632
        },
        {
            "buffer" : 0,
            "byteLength" : 528,
            "byteOffset" : 24424
        },
        {
            "buffer" : 0,
            "byteLength" : 168,
            "byteOffset" : 24952
        },
        {
            "buffer" : 0,
            "byteLength" : 960,
            "byteOffset" : 25120
        },
        {
            "buffer" : 0,
            "byteLength" : 960,
            "byteOffset" : 26080
        },
        {
            "buffer" : 0,
            "byteLength" : 640,
            "byteOffset" : 27040
        },
        {
            "buffer" : 0,
            "byteLength" : 168,
            "byteOffset" : 27680
        },
        {
            "buffer" : 0,
            "byteLength" : 960,
            "byteOffset" : 27848
        },
        {
            "buffer" : 0,
            "byteLength" : 960,
            "byteOffset" : 28808
        },
        {
            "buffer" : 0,
            "byteLength" : 640,
            "byteOffset" : 29768
        },
        {
            "buffer" : 0,
            "byteLength" : 792,
            "byteOffset" : 30408
        },
        {
            "buffer" : 0,
            "byteLength" : 792,
            "byteOffset" : 31200
        },
        {
            "buffer" : 0,
            "byteLength" : 528,
            "byteOffset" : 31992
        },
        {
            "buffer" : 0,
            "byteLength" : 288,
            "byteOffset" : 32520
        },
        {
            "buffer" : 0,
            "byteLength" : 288,
            "byteOffset" : 32808
        },
        {
            "buffer" : 0,
            "byteLength" : 192,
            "byteOffset" : 33096
        },
        {
            "buffer" : 0,
            "byteLength" : 288,
            "byteOffset" : 33288
        },
        {
            "buffer" : 0,
            "byteLength" : 288,
            "byteOffset" : 33576
        },
        {
            "buffer" : 0,
            "byteLength" : 192,
            "byteOffset" : 33864
        }
    ],
    "buffers" : [
        {
            "byteLength" : 34056,
            "uri" : "data:application/octet-stream;base64,"
        }
    ]
}
