{
    "asset" : {
        "generator" : "Khronos glTF Blender I/O v1.2.75",
        "version" : "2.0"
    },
    "scene" : 0,
    "scenes" : [
        {
            "name" : "Scene",
            "nodes" : [
                0,
                1,
                2,
                3,
                4,
                5,
                6,
                7
            ]
        }
    ],
    "nodes" : [
        {
            "name" : "Light",
            "rotation" : [
                0.16907575726509094,
                0.7558803558349609,
                -0.27217137813568115,
                0.570947527885437
            ],
            "translation" : [
                4.076245307922363,
                5.903861999511719,
                -1.0054539442062378
            ]
        },
        {
            "name" : "Camera",
            "rotation" : [
                0.483536034822464,
                0.33687159419059753,
                -0.20870360732078552,
                0.7804827094078064
            ],
            "translation" : [
                7.358891487121582,
                4.958309173583984,
                6.925790786743164
            ]
        },
        {
            "mesh" : 0,
            "name" : "Plane.006",
            "rotation" : [
                0,
                -0.7071067690849304,
                0,
                -0.7071067690849304
            ],
            "scale" : [
                0.9323987364768982,
                1,
                0.9323987364768982
            ]
        },
        {
            "mesh" : 1,
            "name" : "Plane.002"
        },
        {
            "mesh" : 2,
            "name" : "Plane.004",
            "rotation" : [
                0,
                0,
                0,
                -1
            ],
            "scale" : [
                0.9323987364768982,
                1,
                0.9323987364768982
            ]
        },
        {
            "mesh" : 3,
            "name" : "Plane.003",
            "rotation" : [
                0,
                1,
                0,
                -4.371138828673793e-08
            ],
            "scale" : [
                0.9323987364768982,
                1,
                0.9323987364768982
            ]
        },
        {
            "mesh" : 4,
            "name" : "Plane.005",
            "rotation" : [
                0,
                -0.7071067690849304,
                0,
                0.7071067690849304
            ],
            "scale" : [
                0.9323987364768982,
                1,
                0.9323987364768982
            ]
        },
        {
            "mesh" : 5,
            "name" : "Plane.001"
        }
    ],
    "meshes" : [
        {
            "name" : "Plane.002",
            "primitives" : [
                {
                    "attributes" : {
                        "POSITION" : 0,
                        "NORMAL" : 1,
                        "TEXCOORD_0" : 2
                    },
                    "indices" : 3
                }
            ]
        },
        {
            "name" : "Plane.003",
            "primitives" : [
                {
                    "attributes" : {
                        "POSITION" : 4,
                        "NORMAL" : 5,
                        "TEXCOORD_0" : 6
                    },
                    "indices" : 7
                }
            ]
        },
        {
            "name" : "Plane.007",
            "primitives" : [
                {
                    "attributes" : {
                        "POSITION" : 8,
                        "NORMAL" : 9,
                        "TEXCOORD_0" : 10
                    },
                    "indices" : 3
                }
            ]
        },
        {
            "name" : "Plane.008",
            "primitives" : [
                {
                    "attributes" : {
                        "POSITION" : 11,
                        "NORMAL" : 12,
                        "TEXCOORD_0" : 13
                    },
                    "indices" : 3
                }
            ]
        },
        {
            "name" : "Plane.009",
            "primitives" : [
                {
                    "attributes" : {
                        "POSITION" : 14,
                        "NORMAL" : 15,
                        "TEXCOORD_0" : 16
                    },
                    "indices" : 3
                }
            ]
        },
        {
            "name" : "Plane.010",
            "primitives" : [
                {
                    "attributes" : {
                        "POSITION" : 17,
                        "NORMAL" : 18,
                        "TEXCOORD_0" : 19
                    },
                    "indices" : 20
                }
            ]
        }
    ],
    "accessors" : [
        {
            "bufferView" : 0,
            "componentType" : 5126,
            "count" : 24,
            "max" : [
                -0.25,
                0.3453516960144043,
                0.5
            ],
            "min" : [
                -0.5,
                0,
                0.25
            ],
            "type" : "VEC3"
        },
        {
            "bufferView" : 1,
            "componentType" : 5126,
            "count" : 24,
            "type" : "VEC3"
        },
        {
            "bufferView" : 2,
            "componentType" : 5126,
            "count" : 24,
            "type" : "VEC2"
        },
        {
            "bufferView" : 3,
            "componentType" : 5123,
            "count" : 36,
            "type" : "SCALAR"
        },
        {
            "bufferView" : 4,
            "componentType" : 5126,
            "count" : 88,
            "max" : [
                0.5,
                0.906132161617279,
                0.5
            ],
            "min" : [
                -0.5,
                0.30000001192092896,
                -0.5
            ],
            "type" : "VEC3"
        },
        {
            "bufferView" : 5,
            "componentType" : 5126,
            "count" : 88,
            "type" : "VEC3"
        },
        {
            "bufferView" : 6,
            "componentType" : 5126,
            "count" : 88,
            "type" : "VEC2"
        },
        {
            "bufferView" : 7,
            "componentType" : 5123,
            "count" : 132,
            "type" : "SCALAR"
        },
        {
            "bufferView" : 8,
            "componentType" : 5126,
            "count" : 24,
            "max" : [
                -0.25,
                0.3453516960144043,
                0.5
            ],
            "min" : [
                -0.5,
                0,
                0.25
            ],
            "type" : "VEC3"
        },
        {
            "bufferView" : 9,
            "componentType" : 5126,
            "count" : 24,
            "type" : "VEC3"
        },
        {
            "bufferView" : 10,
            "componentType" : 5126,
            "count" : 24,
            "type" : "VEC2"
        },
        {
            "bufferView" : 11,
            "componentType" : 5126,
            "count" : 24,
            "max" : [
                -0.25,
                0.3453516960144043,
                0.5
            ],
            "min" : [
                -0.5,
                0,
                0.25
            ],
            "type" : "VEC3"
        },
        {
            "bufferView" : 12,
            "componentType" : 5126,
            "count" : 24,
            "type" : "VEC3"
        },
        {
            "bufferView" : 13,
            "componentType" : 5126,
            "count" : 24,
            "type" : "VEC2"
        },
        {
            "bufferView" : 14,
            "componentType" : 5126,
            "count" : 24,
            "max" : [
                -0.25,
                0.3453516960144043,
                0.5
            ],
            "min" : [
                -0.5,
                0,
                0.25
            ],
            "type" : "VEC3"
        },
        {
            "bufferView" : 15,
            "componentType" : 5126,
            "count" : 24,
            "type" : "VEC3"
        },
        {
            "bufferView" : 16,
            "componentType" : 5126,
            "count" : 24,
            "type" : "VEC2"
        },
        {
            "bufferView" : 17,
            "componentType" : 5126,
            "count" : 192,
            "max" : [
                0.026542961597442627,
                1.1811649799346924,
                0.38220342993736267
            ],
            "min" : [
                -0.19574275612831116,
                0.6767725348472595,
                -0.38220342993736267
            ],
            "type" : "VEC3"
        },
        {
            "bufferView" : 18,
            "componentType" : 5126,
            "count" : 192,
            "type" : "VEC3"
        },
        {
            "bufferView" : 19,
            "componentType" : 5126,
            "count" : 192,
            "type" : "VEC2"
        },
        {
            "bufferView" : 20,
            "componentType" : 5123,
            "count" : 288,
            "type" : "SCALAR"
        }
    ],
    "bufferViews" : [
        {
            "buffer" : 0,
            "byteLength" : 288,
            "byteOffset" : 0
        },
        {
            "buffer" : 0,
            "byteLength" : 288,
            "byteOffset" : 288
        },
        {
            "buffer" : 0,
            "byteLength" : 192,
            "byteOffset" : 576
        },
        {
            "buffer" : 0,
            "byteLength" : 72,
            "byteOffset" : 768
        },
        {
            "buffer" : 0,
            "byteLength" : 1056,
            "byteOffset" : 840
        },
        {
            "buffer" : 0,
            "byteLength" : 1056,
            "byteOffset" : 1896
        },
        {
            "buffer" : 0,
            "byteLength" : 704,
            "byteOffset" : 2952
        },
        {
            "buffer" : 0,
            "byteLength" : 264,
            "byteOffset" : 3656
        },
        {
            "buffer" : 0,
            "byteLength" : 288,
            "byteOffset" : 3920
        },
        {
            "buffer" : 0,
            "byteLength" : 288,
            "byteOffset" : 4208
        },
        {
            "buffer" : 0,
            "byteLength" : 192,
            "byteOffset" : 4496
        },
        {
            "buffer" : 0,
            "byteLength" : 288,
            "byteOffset" : 4688
        },
        {
            "buffer" : 0,
            "byteLength" : 288,
            "byteOffset" : 4976
        },
        {
            "buffer" : 0,
            "byteLength" : 192,
            "byteOffset" : 5264
        },
        {
            "buffer" : 0,
            "byteLength" : 288,
            "byteOffset" : 5456
        },
        {
            "buffer" : 0,
            "byteLength" : 288,
            "byteOffset" : 5744
        },
        {
            "buffer" : 0,
            "byteLength" : 192,
            "byteOffset" : 6032
        },
        {
            "buffer" : 0,
            "byteLength" : 2304,
            "byteOffset" : 6224
        },
        {
            "buffer" : 0,
            "byteLength" : 2304,
            "byteOffset" : 8528
        },
        {
            "buffer" : 0,
            "byteLength" : 1536,
            "byteOffset" : 10832
        },
        {
            "buffer" : 0,
            "byteLength" : 576,
            "byteOffset" : 12368
        }
    ],
    "buffers" : [
        {
            "byteLength" : 12944,
            "uri" : "data:application/octet-stream;base64,"
        }
    ]
}
