{
    "asset" : {
        "generator" : "Khronos glTF Blender I/O v1.2.75",
        "version" : "2.0"
    },
    "scene" : 0,
    "scenes" : [
        {
            "name" : "Scene",
            "nodes" : [
                0,
                1,
                2,
                3,
                4,
                5,
                6
            ]
        }
    ],
    "nodes" : [
        {
            "mesh" : 0,
            "name" : "Plane"
        },
        {
            "mesh" : 1,
            "name" : "Cube.001",
            "rotation" : [
                0,
                1,
                0,
                -4.371138828673793e-08
            ]
        },
        {
            "mesh" : 2,
            "name" : "Plane.001"
        },
        {
            "mesh" : 3,
            "name" : "Plane.002"
        },
        {
            "mesh" : 4,
            "name" : "Cube.002"
        },
        {
            "name" : "Light",
            "rotation" : [
                0.16907575726509094,
                0.7558803558349609,
                -0.27217137813568115,
                0.570947527885437
            ],
            "translation" : [
                4.076245307922363,
                5.903861999511719,
                -1.0054539442062378
            ]
        },
        {
            "name" : "Camera",
            "rotation" : [
                0.483536034822464,
                0.33687159419059753,
                -0.20870360732078552,
                0.7804827094078064
            ],
            "translation" : [
                7.358891487121582,
                4.958309173583984,
                6.925790786743164
            ]
        }
    ],
    "meshes" : [
        {
            "name" : "Plane.005",
            "primitives" : [
                {
                    "attributes" : {
                        "POSITION" : 0,
                        "NORMAL" : 1,
                        "TEXCOORD_0" : 2
                    },
                    "indices" : 3
                }
            ]
        },
        {
            "name" : "Cube.002",
            "primitives" : [
                {
                    "attributes" : {
                        "POSITION" : 4,
                        "NORMAL" : 5,
                        "TEXCOORD_0" : 6
                    },
                    "indices" : 7
                }
            ]
        },
        {
            "name" : "Plane.006",
            "primitives" : [
                {
                    "attributes" : {
                        "POSITION" : 8,
                        "NORMAL" : 9,
                        "TEXCOORD_0" : 10
                    },
                    "indices" : 11
                }
            ]
        },
        {
            "name" : "Plane.007",
            "primitives" : [
                {
                    "attributes" : {
                        "POSITION" : 12,
                        "NORMAL" : 13,
                        "TEXCOORD_0" : 14
                    },
                    "indices" : 11
                }
            ]
        },
        {
            "name" : "Cube.003",
            "primitives" : [
                {
                    "attributes" : {
                        "POSITION" : 15,
                        "NORMAL" : 16,
                        "TEXCOORD_0" : 17
                    },
                    "indices" : 7
                }
            ]
        }
    ],
    "accessors" : [
        {
            "bufferView" : 0,
            "componentType" : 5126,
            "count" : 125,
            "max" : [
                0.5,
                0.5,
                1.5
            ],
            "min" : [
                -0.5,
                0,
                -1.5
            ],
            "type" : "VEC3"
        },
        {
            "bufferView" : 1,
            "componentType" : 5126,
            "count" : 125,
            "type" : "VEC3"
        },
        {
            "bufferView" : 2,
            "componentType" : 5126,
            "count" : 125,
            "type" : "VEC2"
        },
        {
            "bufferView" : 3,
            "componentType" : 5123,
            "count" : 216,
            "type" : "SCALAR"
        },
        {
            "bufferView" : 4,
            "componentType" : 5126,
            "count" : 56,
            "max" : [
                0.17848308384418488,
                0.7740439176559448,
                -0.4557703733444214
            ],
            "min" : [
                -0.17848306894302368,
                0.4000000059604645,
                -1.1119465827941895
            ],
            "type" : "VEC3"
        },
        {
            "bufferView" : 5,
            "componentType" : 5126,
            "count" : 56,
            "type" : "VEC3"
        },
        {
            "bufferView" : 6,
            "componentType" : 5126,
            "count" : 56,
            "type" : "VEC2"
        },
        {
            "bufferView" : 7,
            "componentType" : 5123,
            "count" : 84,
            "type" : "SCALAR"
        },
        {
            "bufferView" : 8,
            "componentType" : 5126,
            "count" : 24,
            "max" : [
                0.09329400956630707,
                0.7822070121765137,
                0.09329400956630707
            ],
            "min" : [
                -0.09329400956630707,
                0.4000000059604645,
                -0.09329400956630707
            ],
            "type" : "VEC3"
        },
        {
            "bufferView" : 9,
            "componentType" : 5126,
            "count" : 24,
            "type" : "VEC3"
        },
        {
            "bufferView" : 10,
            "componentType" : 5126,
            "count" : 24,
            "type" : "VEC2"
        },
        {
            "bufferView" : 11,
            "componentType" : 5123,
            "count" : 36,
            "type" : "SCALAR"
        },
        {
            "bufferView" : 12,
            "componentType" : 5126,
            "count" : 24,
            "max" : [
                0.2759453058242798,
                0.8402583599090576,
                0.02912232279777527
            ],
            "min" : [
                -0.2759453058242798,
                0.7803304195404053,
                -0.02912232279777527
            ],
            "type" : "VEC3"
        },
        {
            "bufferView" : 13,
            "componentType" : 5126,
            "count" : 24,
            "type" : "VEC3"
        },
        {
            "bufferView" : 14,
            "componentType" : 5126,
            "count" : 24,
            "type" : "VEC2"
        },
        {
            "bufferView" : 15,
            "componentType" : 5126,
            "count" : 56,
            "max" : [
                0.17848308384418488,
                0.7740439176559448,
                -0.4557703733444214
            ],
            "min" : [
                -0.17848306894302368,
                0.4000000059604645,
                -1.1119465827941895
            ],
            "type" : "VEC3"
        },
        {
            "bufferView" : 16,
            "componentType" : 5126,
            "count" : 56,
            "type" : "VEC3"
        },
        {
            "bufferView" : 17,
            "componentType" : 5126,
            "count" : 56,
            "type" : "VEC2"
        }
    ],
    "bufferViews" : [
        {
            "buffer" : 0,
            "byteLength" : 1500,
            "byteOffset" : 0
        },
        {
            "buffer" : 0,
            "byteLength" : 1500,
            "byteOffset" : 1500
        },
        {
            "buffer" : 0,
            "byteLength" : 1000,
            "byteOffset" : 3000
        },
        {
            "buffer" : 0,
            "byteLength" : 432,
            "byteOffset" : 4000
        },
        {
            "buffer" : 0,
            "byteLength" : 672,
            "byteOffset" : 4432
        },
        {
            "buffer" : 0,
            "byteLength" : 672,
            "byteOffset" : 5104
        },
        {
            "buffer" : 0,
            "byteLength" : 448,
            "byteOffset" : 5776
        },
        {
            "buffer" : 0,
            "byteLength" : 168,
            "byteOffset" : 6224
        },
        {
            "buffer" : 0,
            "byteLength" : 288,
            "byteOffset" : 6392
        },
        {
            "buffer" : 0,
            "byteLength" : 288,
            "byteOffset" : 6680
        },
        {
            "buffer" : 0,
            "byteLength" : 192,
            "byteOffset" : 6968
        },
        {
            "buffer" : 0,
            "byteLength" : 72,
            "byteOffset" : 7160
        },
        {
            "buffer" : 0,
            "byteLength" : 288,
            "byteOffset" : 7232
        },
        {
            "buffer" : 0,
            "byteLength" : 288,
            "byteOffset" : 7520
        },
        {
            "buffer" : 0,
            "byteLength" : 192,
            "byteOffset" : 7808
        },
        {
            "buffer" : 0,
            "byteLength" : 672,
            "byteOffset" : 8000
        },
        {
            "buffer" : 0,
            "byteLength" : 672,
            "byteOffset" : 8672
        },
        {
            "buffer" : 0,
            "byteLength" : 448,
            "byteOffset" : 9344
        }
    ],
    "buffers" : [
        {
            "byteLength" : 9792,
            "uri" : "data:application/octet-stream;base64,"
        }
    ]
}
